<svg width="56" height="56" viewBox="0 0 56 56" fill="none" xmlns="http://www.w3.org/2000/svg">
<g filter="url(#filter0_d_1_288)">
<circle cx="28" cy="27" r="18" fill="white"/>
</g>
<g clip-path="url(#clip0_1_288)">
<path d="M34.6981 22.2419C34.1573 22.4952 33.5839 22.6616 32.9967 22.7354C33.6156 22.3435 34.0788 21.7267 34.3 20.9999C33.7192 21.3659 33.0824 21.6224 32.4187 21.7612C31.9729 21.2561 31.3819 20.9212 30.7378 20.8084C30.0936 20.6956 29.4323 20.8113 28.8567 21.1375C28.281 21.4638 27.8233 21.9822 27.5546 22.6123C27.286 23.2424 27.2215 23.9488 27.3711 24.6217C26.1932 24.5592 25.0409 24.2351 23.989 23.6704C22.9371 23.1058 22.0091 22.3132 21.2653 21.3442C21.002 21.823 20.8636 22.3674 20.8643 22.9214C20.8643 24.0089 21.3871 24.9697 22.1818 25.5322C21.7115 25.5165 21.2515 25.382 20.8403 25.1399V25.1789C20.8404 25.9032 21.0771 26.6052 21.5102 27.1657C21.9434 27.7263 22.5463 28.1111 23.2167 28.2547C22.7801 28.38 22.3223 28.3984 21.878 28.3087C22.067 28.9321 22.4354 29.4773 22.9317 29.868C23.4279 30.2587 24.0271 30.4753 24.6454 30.4874C24.0309 30.9984 23.3273 31.3762 22.5749 31.5991C21.8224 31.822 21.0358 31.8856 20.2601 31.7864C21.6143 32.7085 23.1906 33.198 24.8005 33.1964C30.2498 33.1964 33.2297 28.4167 33.2297 24.2714C33.2297 24.1364 33.2262 23.9999 33.2205 23.8664C33.8005 23.4226 34.3011 22.8727 34.6988 22.2427L34.6981 22.2419Z" fill="#696969"/>
</g>
<defs>
<filter id="filter0_d_1_288" x="0" y="0" width="56" height="56" filterUnits="userSpaceOnUse" color-interpolation-filters="sRGB">
<feFlood flood-opacity="0" result="BackgroundImageFix"/>
<feColorMatrix in="SourceAlpha" type="matrix" values="0 0 0 0 0 0 0 0 0 0 0 0 0 0 0 0 0 0 127 0" result="hardAlpha"/>
<feOffset dy="1"/>
<feGaussianBlur stdDeviation="5"/>
<feColorMatrix type="matrix" values="0 0 0 0 0 0 0 0 0 0 0 0 0 0 0 0 0 0 0.1 0"/>
<feBlend mode="normal" in2="BackgroundImageFix" result="effect1_dropShadow_1_288"/>
<feBlend mode="normal" in="SourceGraphic" in2="effect1_dropShadow_1_288" result="shape"/>
</filter>
<clipPath id="clip0_1_288">
<rect width="17" height="18" fill="white" transform="translate(19 18)"/>
</clipPath>
</defs>
</svg>
