<svg width="56" height="56" viewBox="0 0 56 56" fill="none" xmlns="http://www.w3.org/2000/svg">
<g filter="url(#filter0_d_1_299)">
<circle cx="28" cy="27" r="18" fill="white"/>
</g>
<g clip-path="url(#clip0_1_299)">
<path d="M34.2596 22.8735C34.5833 24.21 34.5833 27 34.5833 27C34.5833 27 34.5833 29.79 34.2596 31.1265C34.0797 31.8653 33.5534 32.4465 32.8869 32.643C31.6763 33 27.5 33 27.5 33C27.5 33 23.3258 33 22.1131 32.643C21.4437 32.4435 20.9182 31.863 20.7404 31.1265C20.4167 29.79 20.4167 27 20.4167 27C20.4167 27 20.4167 24.21 20.7404 22.8735C20.9203 22.1348 21.4466 21.5535 22.1131 21.357C23.3258 21 27.5 21 27.5 21C27.5 21 31.6763 21 32.8869 21.357C33.5562 21.5565 34.0818 22.137 34.2596 22.8735ZM26.0833 29.625L30.3333 27L26.0833 24.375V29.625Z" fill="#696969"/>
</g>
<defs>
<filter id="filter0_d_1_299" x="0" y="0" width="56" height="56" filterUnits="userSpaceOnUse" color-interpolation-filters="sRGB">
<feFlood flood-opacity="0" result="BackgroundImageFix"/>
<feColorMatrix in="SourceAlpha" type="matrix" values="0 0 0 0 0 0 0 0 0 0 0 0 0 0 0 0 0 0 127 0" result="hardAlpha"/>
<feOffset dy="1"/>
<feGaussianBlur stdDeviation="5"/>
<feColorMatrix type="matrix" values="0 0 0 0 0 0 0 0 0 0 0 0 0 0 0 0 0 0 0.1 0"/>
<feBlend mode="normal" in2="BackgroundImageFix" result="effect1_dropShadow_1_299"/>
<feBlend mode="normal" in="SourceGraphic" in2="effect1_dropShadow_1_299" result="shape"/>
</filter>
<clipPath id="clip0_1_299">
<rect width="17" height="18" fill="white" transform="translate(19 18)"/>
</clipPath>
</defs>
</svg>
