<svg width="113" height="113" viewBox="0 0 113 113" fill="none" xmlns="http://www.w3.org/2000/svg">
<path d="M0 0H25.7617C41.9296 0 55.0363 13.1067 55.0363 29.2746V43.3264C55.0363 49.7936 49.7936 55.0363 43.3264 55.0363H29.2746C13.1067 55.0363 0 41.9296 0 25.7617V0Z" fill="#FDC138"/>
<path d="M113 0H87.2383C71.0704 0 57.9637 13.1067 57.9637 29.2746V43.3264C57.9637 49.7936 63.2064 55.0363 69.6736 55.0363H83.7254C99.8933 55.0363 113 41.9296 113 25.7617V0Z" fill="#2D8A5A"/>
<path d="M0 113H25.7617C41.9296 113 55.0363 99.8934 55.0363 83.7255V69.6737C55.0363 63.2065 49.7936 57.9639 43.3264 57.9639H29.2746C13.1067 57.9639 0 71.0706 0 87.2385V113Z" fill="#2D8A5A"/>
<path d="M113 113H87.2383C71.0704 113 57.9637 99.8934 57.9637 83.7255V69.6737C57.9637 63.2065 63.2064 57.9639 69.6736 57.9639H83.7254C99.8933 57.9639 113 71.0706 113 87.2385V113Z" fill="#FDC138"/>
</svg>
