<svg width="40" height="40" viewBox="0 0 40 40" fill="none" xmlns="http://www.w3.org/2000/svg">
<path d="M0 0H9.11917C14.8423 0 19.4819 4.63953 19.4819 10.3627V15.3368C19.4819 17.6261 17.6261 19.4819 15.3368 19.4819H10.3627C4.63953 19.4819 0 14.8423 0 9.11917V0Z" fill="#FDC138"/>
<path d="M40 0H30.8808C25.1577 0 20.5181 4.63953 20.5181 10.3627V15.3368C20.5181 17.6261 22.3739 19.4819 24.6632 19.4819H29.6373C35.3605 19.4819 40 14.8423 40 9.11917V0Z" fill="#399866"/>
<path d="M0 40H9.11917C14.8423 40 19.4819 35.3605 19.4819 29.6373V24.6632C19.4819 22.3739 17.6261 20.5181 15.3368 20.5181H10.3627C4.63953 20.5181 0 25.1577 0 30.8808V40Z" fill="#399866"/>
<path d="M40 40H30.8808C25.1577 40 20.5181 35.3605 20.5181 29.6373V24.6632C20.5181 22.3739 22.3739 20.5181 24.6632 20.5181H29.6373C35.3605 20.5181 40 25.1577 40 30.8808V40Z" fill="#FDC138"/>
</svg>
